<svg xmlns="http://www.w3.org/2000/svg" viewBox="0 0 1024 1024" width="1024" height="1024">
  <!-- Icône adaptative Android — calque "foreground" (fond transparent).
       Le logo est réduit à ~49% et centré pour rester dans la zone sûre
       (~66%) lorsque le launcher applique son masque (cercle, carré
       arrondi, goutte...). À utiliser avec icon-background.svg. -->
  <g transform="translate(-96.1 -95.6) scale(0.49)" style="fill-rule:evenodd;clip-rule:evenodd">
    <ellipse cx="1569.466" cy="974.341" rx="113.239" ry="117.957" fill="#fff900"/>
    <path d="M1448.414,1149.957c10.344,-14.463 27.279,-23.898 46.4,-23.898l129.693,0c31.464,0 57.009,25.545 57.009,57.009l0,111.803c0,10.837 -3.03,20.972 -8.29,29.603c5.406,19.518 8.29,40.031 8.29,61.191c0,130.211 -109.178,235.926 -243.655,235.926c-79.644,0 -150.414,-37.081 -194.886,-94.37c-44.471,57.289 -115.242,94.37 -194.886,94.37c-134.477,0 -243.655,-105.715 -243.655,-235.926c-0,-15.783 1.604,-31.206 4.663,-46.124c-2.768,-6.997 -4.29,-14.622 -4.29,-22.599l0,-403.1c0,-33.956 27.568,-61.525 61.525,-61.525l120.66,0c33.956,0 61.525,27.568 61.525,61.525l0,446.257c0,10.138 8.23,18.368 18.368,18.368l36.023,0c10.138,0 18.368,-8.23 18.368,-18.368l0,-454.219c3.91,-30.201 29.755,-53.562 61.013,-53.562l120.66,0c33.956,0 61.525,27.568 61.525,61.525l0,246.804l0.572,-0.174l0,199.627c0,10.138 8.23,18.368 18.368,18.368l36.023,0c10.138,0 18.368,-8.23 18.368,-18.368l-0,-177.031c0,-12.343 3.931,-23.775 10.608,-33.111Z" fill="#fff"/>
  </g>
</svg>
